:version 1.10
:name ASF
:units
  mass 1
  length 1
  angle deg
:documentation
  ASF file generated by Kaydara
:root
  axis xyz
  order  tx ty tz rx ry rz
  position 0 0 0
  orientation 0 0 0
:bonedata
  begin
    id 1
    name LeftUpLegDummy
    direction 1 -2.30186e-007 -8.31532e-007
    length 2.93387
    axis 0 0 0 xyz
  end
  begin
    id 2
    name LeftUpLeg
    direction -1.82929e-007 -1 -1.48925e-009
    length 17.3336
    axis -3.48766 0.00143442 -0.000521554 xyz
    dof rx ry rz
  end
  begin
    id 3
    name LeftLeg
    direction -1.82929e-007 -1 -5.23717e-011
    length 14.9995
    axis 3.68178 -0.00654042 -0.000282425 xyz
    dof rx ry rz
  end
  begin
    id 4
    name LeftFoot
    direction 8.31532e-007 -4.54534e-011 1
    length 6.74421
    axis 1.87234e-006 4.66016e-005 -5.96866e-006 xyz
    dof rx ry rz
  end
  begin
    id 5
    name LeftToes
    direction 0.00818058 -0.00485161 0.999955
    length 3.85048
    axis 1.06247e-005 4.65869e-005 -5.96999e-006 xyz
    dof rx ry rz
  end
  begin
    id 6
    name SpineDummy
    direction -5.8607e-008 0.943407 -0.331637
    length 5.93572
    axis 0 0 0 xyz
  end
  begin
    id 7
    name Spine
    direction -1.04988e-007 0.999988 0.00495137
    length 10.1015
    axis -0.001389 0.000121417 6.61666e-006 xyz
    dof rx ry rz
  end
  begin
    id 8
    name Spine1
    direction 0 0 0
    length 0
    axis -0.001389 0.00012144 6.56766e-006 xyz
    dof rx ry rz
  end
  begin
    id 9
    name RightShoulderDummy
    direction -0.98348 0.17941 -0.0240696
    length 3.59882
    axis -0.001389 0.00012144 6.56766e-006 xyz
  end
  begin
    id 10
    name RightShoulder
    direction -0.978693 0.204882 0.0135597
    length 2.70001
    axis 0.215806 0.000203631 -0.00679732 xyz
    dof rx ry rz
  end
  begin
    id 11
    name RightArm
    direction -1 3.85509e-006 8.31394e-007
    length 10.2459
    axis -23.2009 -0.134239 -0.964098 xyz
    dof rx ry rz
  end
  begin
    id 12
    name RightForeArm
    direction -1 3.85569e-006 8.3129e-007
    length 8.16799
    axis -9.92322 0.0658061 0.17887 xyz
    dof rx ry rz
  end
  begin
    id 13
    name RightHand
    direction -0.992843 -0.0414604 0.112003
    length 5.28593
    axis -0.00960638 0.00330669 -0.185225 xyz
    dof rx ry rz
  end
  begin
    id 14
    name LeftShoulder1Dummy
    direction 0.983523 0.179172 -0.0240748
    length 3.59866
    axis -0.001389 0.00012144 6.56766e-006 xyz
  end
  begin
    id 15
    name LeftShoulder1
    direction 0.978627 0.205195 0.0135605
    length 2.70019
    axis -0.001389 0.00012144 6.57583e-006 xyz
    dof rx ry rz
  end
  begin
    id 16
    name LeftArm
    direction 1 3.51895e-006 -8.60188e-007
    length 10.2459
    axis -23.1894 0.134785 0.967513 xyz
    dof rx ry rz
  end
  begin
    id 17
    name LeftForeArm
    direction 1 3.51921e-006 -7.32029e-007
    length 8.16799
    axis -9.91835 -0.0656957 -0.177789 xyz
    dof rx ry rz
  end
  begin
    id 18
    name LeftHand
    direction 0.992938 -0.0411636 0.11126
    length 5.32135
    axis -0.00960237 -0.00340661 0.185177 xyz
    dof rx ry rz
  end
  begin
    id 19
    name HEadDummy
    direction 1.01974e-006 0.999861 -0.016675
    length 2.99946
    axis -0.001389 0.00012144 6.56766e-006 xyz
  end
  begin
    id 20
    name HEad
    direction -0.0222689 0.980941 0.193023
    length 5.12695
    axis -0.001389 0.00012144 6.56766e-006 xyz
    dof rx ry rz
  end
  begin
    id 21
    name RightUpLegDummy
    direction -1 2.30186e-007 8.31532e-007
    length 2.93387
    axis 0 0 0 xyz
  end
  begin
    id 22
    name RightUpLeg
    direction -1.82966e-007 -1 1.56832e-007
    length 17.3336
    axis -3.4909 -0.000906625 0.00028951 xyz
    dof rx ry rz
  end
  begin
    id 23
    name RightLeg
    direction -1.82786e-007 -1 -1.80317e-007
    length 14.9995
    axis 3.68513 0.0193739 -0.131021 xyz
    dof rx ry rz
  end
  begin
    id 24
    name RightFoot
    direction 8.31721e-007 -4.63324e-011 1
    length 6.74421
    axis 4.81691e-005 -0.120479 -0.188785 xyz
    dof rx ry rz
  end
  begin
    id 25
    name RightToes
    direction 0.00124746 -0.014064 0.9999
    length 3.85082
    axis 0.000481921 0.542163 -0.142575 xyz
    dof rx ry rz
  end
:hierarchy
  begin
    root LeftUpLegDummy SpineDummy RightUpLegDummy
    LeftUpLegDummy LeftUpLeg
    LeftUpLeg LeftLeg
    LeftLeg LeftFoot
    LeftFoot LeftToes
    SpineDummy Spine
    Spine Spine1
    Spine1 RightShoulderDummy LeftShoulder1Dummy HEadDummy
    RightShoulderDummy RightShoulder
    RightShoulder RightArm
    RightArm RightForeArm
    RightForeArm RightHand
    LeftShoulder1Dummy LeftShoulder1
    LeftShoulder1 LeftArm
    LeftArm LeftForeArm
    LeftForeArm LeftHand
    HEadDummy HEad
    RightUpLegDummy RightUpLeg
    RightUpLeg RightLeg
    RightLeg RightFoot
    RightFoot RightToes
  end

:SAMPLES-PER-SECOND 30
:FULLY-SPECIFIED
:DEGREES
314
root  18.9202 34.2663 15.375 1.74089 71.2865 -5.26489
LeftUpLeg  -12.3655 13.4083 1.97028
LeftLeg  12.1005 14.2313 2.08237
LeftFoot  1.59175 -0.0135051 0.390146
LeftToes  -14.0263 1.61378e-006 8.80029e-008
Spine  3.9161 -1.79016 -2.40626
Spine1  7.63239 -4.01357 -3.87868
RightShoulder  0.00023679 4.89014 5.68912
RightArm  -37.0765 -17.063 81.5559
RightForeArm  29.0415 32.8413 6.53255
RightHand  0.251709 -5.10768 -5.26211
LeftShoulder1  0.145814 -1.5707 -10.7513
LeftArm  -20.7573 2.22977 -59.7094
LeftForeArm  35.6144 -13.7416 -2.46181
LeftHand  0.124733 2.6672 4.97117
HEad  -0.672117 -24.9114 -3.65872
RightUpLeg  -25.4564 -12.908 -0.892381
RightLeg  27.3725 5.70693 2.49257
RightFoot  4.80234 -0.00551093 0.508896
RightToes  -36.11 -0.188178 -0.284639
315
root  19.0885 34.2702 15.3683 2.11101 70.2127 -5.15138
LeftUpLeg  -12.266 13.8796 1.90112
LeftLeg  12.2826 14.8699 2.22142
LeftFoot  1.08141 -0.00628019 0.26281
LeftToes  -13.6271 1.61378e-006 8.80029e-008
Spine  3.93768 -1.64115 -2.39895
Spine1  7.66927 -3.79448 -3.80036
RightShoulder  0.000646863 4.74154 5.51369
RightArm  -33.1361 -16.4904 81.2509
RightForeArm  28.388 33.9866 6.82566
RightHand  0.261758 -5.54992 -5.02048
LeftShoulder1  0.149023 -1.59404 -10.6362
LeftArm  -20.6854 1.44356 -59.8683
LeftForeArm  35.3495 -14.3492 -2.57559
LeftHand  0.119082 2.48777 5.09596
HEad  -1.38922 -24.9953 -3.36122
RightUpLeg  -26.2397 -13.321 -0.821197
RightLeg  20.8503 4.25505 1.31154
RightFoot  5.83832 -0.00254516 0.439076
RightToes  -35.8711 -0.186368 -0.282217
316
root  19.2511 34.2818 15.4103 2.35971 69.5046 -5.21475
LeftUpLeg  -12.1897 14.5287 1.92085
LeftLeg  12.3072 14.949 2.23944
LeftFoot  0.736892 -0.00104796 0.162955
LeftToes  -13.5399 1.61378e-006 8.80029e-008
Spine  3.95772 -1.56132 -2.33048
Spine1  7.70718 -3.69529 -3.62828
RightShoulder  0.000751572 4.49301 5.3024
RightArm  -30.2253 -16.323 80.9387
RightForeArm  26.9768 35.0474 7.1048
RightHand  0.274171 -5.66133 -5.16472
LeftShoulder1  0.150288 -1.60529 -10.4984
LeftArm  -20.3165 0.939823 -60.0103
LeftForeArm  34.6116 -15.2007 -2.73648
LeftHand  0.109624 2.33303 4.99489
HEad  -2.36488 -25.0514 -3.00522
RightUpLeg  -27.0648 -13.99 -0.577935
RightLeg  15.009 2.20043 0.441174
RightFoot  5.45154 0.00793025 0.210405
RightToes  -34.7141 -0.177693 -0.279126
317
root  19.4429 34.2929 15.4964 2.72629 69.1247 -5.15933
LeftUpLeg  -11.8868 15.0342 1.93272
LeftLeg  11.8712 14.9047 2.11859
LeftFoot  0.58724 -0.000595333 0.116161
LeftToes  -13.5426 1.61378e-006 8.80029e-008
Spine  3.95771 -1.56771 -2.24021
Spine1  7.70822 -3.74445 -3.44535
RightShoulder  0.000652225 4.42545 5.19884
RightArm  -28.549 -16.4811 80.5763
RightForeArm  25.8096 35.5455 7.23851
RightHand  0.277093 -5.49586 -5.37918
LeftShoulder1  0.151185 -1.68738 -10.406
LeftArm  -19.693 0.803282 -60.0258
LeftForeArm  33.6773 -16.0629 -2.9009
LeftHand  0.103385 2.20754 4.97648
HEad  -3.1462 -24.8922 -2.85154
RightUpLeg  -27.7933 -14.8865 -0.295521
RightLeg  10.0825 -0.182472 -0.0190895
RightFoot  5.35127 0.0181163 -0.010107
RightToes  -33.7046 -0.170245 -0.276871
318
root  19.6658 34.2775 15.6337 3.47452 69.2503 -4.57167
LeftUpLeg  -11.5466 15.4512 1.82984
LeftLeg  11.6295 14.4652 1.99598
LeftFoot  0.363305 -2.15772e-005 0.0495794
LeftToes  -14.0189 1.61378e-006 8.80029e-008
Spine  3.98289 -1.71316 -2.16343
Spine1  7.76398 -4.05852 -3.30107
RightShoulder  0.000574943 4.24119 5.21598
RightArm  -27.9725 -16.7081 80.2824
RightForeArm  25.2246 35.4343 7.20869
RightHand  0.271236 -5.49521 -5.27091
LeftShoulder1  0.151468 -1.71803 -10.3877
LeftArm  -19.1045 0.756929 -60.0338
LeftForeArm  33.2661 -16.6326 -3.01016
LeftHand  0.0930985 2.00628 4.92609
HEad  -3.84613 -24.6592 -2.88197
RightUpLeg  -28.6702 -17.3846 0.369595
RightLeg  7.00103 -2.22519 -0.127409
RightFoot  5.52641 0.0281302 -0.205253
RightToes  -33.602 -0.169495 -0.276205
319
root  19.9191 34.2355 15.8256 4.67458 69.7107 -3.42459
LeftUpLeg  -11.0918 15.1728 1.67871
LeftLeg  11.4412 14.3158 1.92844
LeftFoot  0.106054 1.61071e-005 -0.0174136
LeftToes  -14.5042 1.61378e-006 8.80029e-008
Spine  4.03612 -1.90692 -2.09133
Spine1  7.87497 -4.46277 -3.16509
RightShoulder  0.000573549 4.13887 5.28356
RightArm  -28.5069 -17.1353 80.0518
RightForeArm  24.8744 34.809 7.04206
RightHand  0.278564 -5.64215 -5.27234
LeftShoulder1  0.15089 -1.78717 -10.4207
LeftArm  -18.6104 0.681462 -60.1289
LeftForeArm  33.2624 -16.8062 -3.0435
LeftHand  0.0912726 1.95139 4.96777
HEad  -4.38393 -24.5534 -2.97003
RightUpLeg  -29.7769 -20.2721 1.06178
RightLeg  6.33257 -5.30232 -0.242927
RightFoot  5.06662 0.0370603 -0.460017
RightToes  -32.2356 -0.159615 -0.2672
320
root  20.2219 34.1813 16.0775 6.11433 70.2077 -1.93524
LeftUpLeg  -10.4528 14.9618 1.55244
LeftLeg  11.2939 14.0661 1.85909
LeftFoot  -0.184422 -0.000144267 -0.0896482
LeftToes  -15.2304 1.61378e-006 8.80029e-008
Spine  4.06175 -2.00974 -2.03523
Spine1  7.92658 -4.67784 -3.05902
RightShoulder  0.000807137 4.17322 5.50242
RightArm  -29.8087 -17.9081 79.7283
RightForeArm  24.4162 33.4692 6.69355
RightHand  0.316297 -5.85152 -5.80622
LeftShoulder1  0.149206 -1.82611 -10.4222
LeftArm  -18.3273 0.595872 -60.4504
LeftForeArm  33.6065 -16.4882 -2.98221
LeftHand  0.0905228 1.975 4.86098
HEad  -4.64159 -24.6702 -3.02025
RightUpLeg  -30.2328 -21.4601 0.898592
RightLeg  6.92822 -10.0577 -0.563561
RightFoot  5.01206 0.0551118 -0.881501
RightToes  -28.391 -0.132999 -0.240629
321
root  20.5942 34.1124 16.3992 8.12674 70.6084 0.254929
LeftUpLeg  -9.58569 14.9712 1.35905
LeftLeg  11.2179 13.6569 1.78782
LeftFoot  -0.497936 -0.000704978 -0.162245
LeftToes  -16.1449 1.61378e-006 8.80029e-008
Spine  3.9887 -2.00198 -2.0512
Spine1  7.7844 -4.65972 -3.09869
RightShoulder  0.00142976 4.26846 5.85081
RightArm  -31.6616 -19.123 79.3545
RightForeArm  24.3314 31.503 6.20168
RightHand  0.352956 -6.05873 -6.28512
LeftShoulder1  0.14617 -1.73824 -10.3871
LeftArm  -18.3027 0.80622 -60.9571
LeftForeArm  34.0247 -15.9063 -2.87079
LeftHand  0.0997148 2.16268 4.89345
HEad  -4.57774 -24.898 -3.12523
RightUpLeg  -30.1037 -22.6399 0.564451
RightLeg  8.05144 -13.4378 -1.0115
RightFoot  5.62481 0.0846893 -1.3461
RightToes  -26.4727 -0.120401 -0.226718
322
root  21.0191 34.0325 16.7968 10.102 70.9833 2.3492
LeftUpLeg  -8.79622 14.869 1.36616
LeftLeg  11.51 13.323 1.81335
LeftFoot  -0.987202 -0.00233889 -0.271492
LeftToes  -17.1506 1.61378e-006 8.80029e-008
Spine  3.82582 -1.91321 -2.02865
Spine1  7.46122 -4.45621 -3.0941
RightShoulder  0.00257475 4.31209 6.22741
RightArm  -33.8203 -20.5747 78.892
RightForeArm  24.6069 29.0854 5.6253
RightHand  0.36784 -6.33745 -6.26049
LeftShoulder1  0.139057 -1.47667 -10.3712
LeftArm  -18.5562 1.33158 -61.6004
LeftForeArm  34.3956 -15.3355 -2.76215
LeftHand  0.107046 2.34718 4.83748
HEad  -4.38041 -25.1825 -3.18152
RightUpLeg  -29.4953 -24.1777 0.503357
RightLeg  9.35142 -14.0856 -1.37785
RightFoot  6.03519 0.10041 -1.52684
RightToes  -24.7819 -0.109688 -0.214114
323
root  21.4905 33.9395 17.2723 11.8629 71.3491 4.29517
LeftUpLeg  -7.95429 14.5263 1.6007
LeftLeg  12.1339 13.2199 1.94493
LeftFoot  -1.58128 -0.00559312 -0.4053
LeftToes  -18.2976 1.61378e-006 8.80029e-008
Spine  3.61948 -1.77677 -1.98576
Spine1  7.05109 -4.13654 -3.07715
RightShoulder  0.00435671 4.43876 6.66722
RightArm  -36.5851 -22.157 78.3648
RightForeArm  25.322 26.1856 4.96966
RightHand  0.365959 -6.60723 -5.95758
LeftShoulder1  0.128188 -1.15417 -10.3925
LeftArm  -18.8696 2.38919 -62.1401
LeftForeArm  34.4187 -15.0744 -2.71279
LeftHand  0.114504 2.48333 4.89552
HEad  -4.25033 -25.5757 -3.18385
RightUpLeg  -28.162 -24.9826 0.169991
RightLeg  10.9499 -13.2923 -1.67393
RightFoot  5.90911 0.0925091 -1.41451
RightToes  -22.4494 -0.0955301 -0.196219
324
root  22.0102 33.8536 17.8362 12.1223 71.6503 4.82019
LeftUpLeg  -6.7742 13.6845 2.45004
LeftLeg  12.6864 13.7509 2.15576
LeftFoot  -2.04945 -0.00954384 -0.533576
LeftToes  -19.4254 1.61378e-006 8.80029e-008
Spine  3.40754 -1.59344 -1.80319
Spine1  6.62046 -3.72457 -2.79748
RightShoulder  0.00684761 4.72021 7.07526
RightArm  -39.7701 -23.622 77.6624
RightForeArm  26.3701 22.4199 4.16656
RightHand  0.363198 -6.83095 -5.7044
LeftShoulder1  0.11639 -0.878994 -10.4582
LeftArm  -19.2166 4.1277 -62.5583
LeftForeArm  34.2385 -15.1983 -2.73634
LeftHand  0.115422 2.50357 4.89487
HEad  -4.30819 -25.7876 -3.10838
RightUpLeg  -25.6292 -23.369 -0.556652
RightLeg  10.892 -14.8261 -1.8475
RightFoot  9.92874 0.26477 -2.66971
RightToes  -31.4676 -0.154156 -0.262035
325
root  22.529 33.7964 18.4939 9.43599 71.9554 2.25778
LeftUpLeg  -5.83168 12.976 4.37395
LeftLeg  13.8449 14.2666 2.52793
LeftFoot  -2.59905 -0.0158763 -0.699862
LeftToes  -20.4564 1.61378e-006 8.80029e-008
Spine  3.16402 -1.3979 -1.28691
Spine1  6.11858 -3.30449 -1.87226
RightShoulder  0.0118753 5.00601 7.45857
RightArm  -42.5646 -24.6775 76.4214
RightForeArm  27.5138 17.7109 3.22318
RightHand  0.37426 -7.08363 -5.66586
LeftShoulder1  0.0992775 -0.487313 -10.6402
LeftArm  -19.6335 6.21724 -63.0421
LeftForeArm  34.0899 -15.356 -2.76629
LeftHand  0.11277 2.41761 4.95633
HEad  -4.5887 -25.7723 -3.01605
RightUpLeg  -21.485 -17.5601 -1.38358
RightLeg  5.96098 -21.3919 -0.820146
RightFoot  16.1895 0.955504 -6.3328
RightToes  -35.0858 -0.180464 -0.285714
326
root  23.0122 33.7707 19.1837 4.95386 71.7203 -2.38029
LeftUpLeg  -5.01792 11.4667 6.77008
LeftLeg  15.0278 16.0857 3.18049
LeftFoot  -2.90843 -0.0227444 -0.89592
LeftToes  -21.0551 1.61378e-006 8.80029e-008
Spine  2.87527 -1.1585 -0.514335
Spine1  5.54253 -2.83435 -0.445658
RightShoulder  0.0304819 5.30902 7.86668
RightArm  -44.8043 -25.338 74.6047
RightForeArm  28.811 13.4064 2.40526
RightHand  0.406196 -7.65517 -5.69086
LeftShoulder1  0.077516 -0.0755867 -10.84
LeftArm  -20.7682 8.64937 -63.7834
LeftForeArm  34.3111 -15.3477 -2.76453
LeftHand  0.105277 2.16152 5.18952
HEad  -5.11843 -25.5633 -2.97466
RightUpLeg  -20.1248 -14.7755 -0.0355057
RightLeg  6.18373 -23.4792 -0.983828
RightFoot  14.36 0.83619 -6.25263
RightToes  -33.213 -0.166661 -0.273665
327
root  23.4119 33.8025 19.8611 -0.788239 70.8858 -8.35837
LeftUpLeg  -4.38036 9.55054 9.47579
LeftLeg  16.5435 18.8544 4.21823
LeftFoot  -2.81269 -0.0256772 -1.04588
LeftToes  -21.4666 1.61378e-006 8.80029e-008
Spine  2.68434 -0.935335 0.481898
Spine1  5.17354 -2.40262 1.4106
RightShoulder  0.054043 5.65398 8.25104
RightArm  -46.268 -25.7863 72.432
RightForeArm  29.7625 11.9853 2.14214
RightHand  0.435884 -8.18778 -5.70975
LeftShoulder1  0.0563759 0.32296 -10.8558
LeftArm  -23.0512 10.9452 -65.217
LeftForeArm  34.8186 -14.7851 -2.65793
LeftHand  0.109387 2.0857 5.61506
HEad  -5.59289 -25.2188 -3.02295
RightUpLeg  -19.4184 -14.5623 2.60156
RightLeg  7.25892 -22.4929 -1.35733
RightFoot  12.4755 0.611974 -5.21671
RightToes  -30.988 -0.150784 -0.258774
